<?xml version="1.0" encoding="UTF-8"?><svg id="Layer_1" xmlns="http://www.w3.org/2000/svg" viewBox="0 0 169.15 269.47"><defs><style>.cls-1{fill:#100e21;}.cls-1,.cls-2{stroke-width:0px;}.cls-2{fill:#fff;}</style></defs><path class="cls-1" d="m84.57,0C37.94,0,0,37.94,0,84.57v184.9h169.15V84.57C169.15,37.94,131.21,0,84.57,0Z"/><path class="cls-2" d="m84.57,11.84c-13.24,0-25.67,3.54-36.36,9.74-6.85,3.96-12.98,9-18.18,14.89-11.31,12.83-18.18,29.66-18.18,48.1v54.55l18.18,18.18v-72.73c0-16.16,7.02-30.67,18.18-40.65,5.25-4.69,11.41-8.39,18.18-10.77,5.69-2.03,11.81-3.12,18.18-3.12,30.12,0,54.55,24.42,54.55,54.55s-24.42,54.55-54.55,54.55v18.18c40.17,0,72.73-32.56,72.73-72.73S124.74,11.84,84.57,11.84Z"/><path class="cls-2" d="m102.76,84.57c0,10.04-8.14,18.18-18.18,18.18v18.18c20.08,0,36.36-16.29,36.36-36.36s-16.29-36.36-36.36-36.36c-6.62,0-12.84,1.76-18.18,4.87-10.87,6.28-18.18,18.03-18.18,31.5v90.91l16.35,16.35,1.84,1.84v-109.09c0-10.04,8.14-18.18,18.18-18.18s18.18,8.14,18.18,18.18h0Z"/><path class="cls-2" d="m11.85,218.91v-18.66h8.63c1.23,0,2.29.24,3.2.71s1.62,1.12,2.13,1.96c.52.84.77,1.8.77,2.9s-.26,2.07-.77,2.9c-.52.84-1.23,1.49-2.15,1.96-.92.47-1.98.71-3.18.71h-5.84v7.52h-2.8Zm2.8-9.89h5.54c1.1,0,1.98-.29,2.62-.87s.97-1.35.97-2.31-.32-1.72-.97-2.29c-.65-.57-1.52-.85-2.62-.85h-5.54v6.32Z"/><path class="cls-2" d="m34.63,219.17c-1.32,0-2.51-.31-3.58-.93-1.08-.62-1.92-1.47-2.54-2.53-.62-1.07-.93-2.26-.93-3.57s.31-2.51.93-3.57c.62-1.07,1.47-1.91,2.54-2.54,1.07-.63,2.27-.95,3.58-.95s2.53.32,3.6.95c1.07.63,1.91,1.48,2.53,2.54s.93,2.26.93,3.57-.31,2.5-.93,3.57-1.47,1.91-2.53,2.53c-1.07.62-2.26.93-3.6.93Zm0-2.35c.83,0,1.59-.21,2.27-.63.68-.42,1.21-.98,1.6-1.69.39-.71.59-1.51.59-2.4s-.2-1.66-.6-2.36c-.4-.7-.93-1.27-1.6-1.69-.67-.43-1.42-.64-2.25-.64s-1.59.21-2.25.64c-.67.43-1.2.99-1.6,1.69-.4.7-.6,1.49-.6,2.36s.19,1.69.59,2.4.92,1.28,1.6,1.69,1.43.63,2.27.63Z"/><path class="cls-2" d="m47.02,218.91l-3.78-13.57h2.59l2.64,9.97,3.09-9.97h2.29l3.09,9.97,2.64-9.97h2.51l-3.81,13.57h-2.56l-3.04-9.94-3.06,9.94h-2.59Z"/><path class="cls-2" d="m70.74,219.15c-1.33,0-2.54-.31-3.61-.93-1.07-.62-1.93-1.47-2.56-2.53-.63-1.07-.95-2.26-.95-3.57s.3-2.47.91-3.53c.6-1.06,1.42-1.9,2.45-2.53,1.03-.63,2.18-.95,3.44-.95s2.38.32,3.36.95c.98.63,1.75,1.48,2.33,2.56s.87,2.29.87,3.64v.75h-10.69c.14.75.42,1.41.84,2,.42.59.95,1.05,1.6,1.39.65.34,1.35.51,2.12.51.66,0,1.29-.1,1.91-.31.61-.2,1.12-.5,1.53-.89l1.71,1.68c-.8.6-1.62,1.05-2.47,1.35-.84.29-1.77.44-2.78.44Zm-4.42-8.16h8.02c-.11-.71-.35-1.34-.73-1.88-.38-.54-.85-.97-1.41-1.28-.56-.31-1.17-.47-1.83-.47s-1.3.15-1.87.45c-.57.3-1.04.72-1.43,1.27-.38.54-.64,1.18-.76,1.91Z"/><path class="cls-2" d="m80.04,218.91v-13.57h2.67v1.73c.43-.64.95-1.14,1.59-1.51.63-.36,1.35-.55,2.15-.55.55.02,1,.1,1.36.24v2.4c-.25-.11-.51-.18-.77-.23-.27-.04-.53-.07-.8-.07-.78,0-1.48.21-2.08.63s-1.08,1.03-1.44,1.83v9.09h-2.67Z"/><path class="cls-2" d="m96.19,219.15c-1.33,0-2.54-.31-3.61-.93-1.07-.62-1.93-1.47-2.56-2.53-.63-1.07-.95-2.26-.95-3.57s.3-2.47.91-3.53,1.42-1.9,2.45-2.53c1.03-.63,2.18-.95,3.44-.95s2.38.32,3.36.95c.98.63,1.75,1.48,2.33,2.56s.87,2.29.87,3.64v.75h-10.69c.14.75.42,1.41.84,2,.42.59.95,1.05,1.6,1.39.65.34,1.35.51,2.12.51.66,0,1.29-.1,1.91-.31.61-.2,1.12-.5,1.53-.89l1.71,1.68c-.8.6-1.62,1.05-2.47,1.35s-1.77.44-2.78.44Zm-4.42-8.16h8.02c-.11-.71-.35-1.34-.73-1.88-.38-.54-.85-.97-1.41-1.28-.56-.31-1.17-.47-1.83-.47s-1.3.15-1.87.45c-.57.3-1.04.72-1.43,1.27-.38.54-.63,1.18-.76,1.91Z"/><path class="cls-2" d="m111.76,219.12c-1.26,0-2.42-.31-3.46-.93-1.05-.62-1.87-1.46-2.48-2.52-.6-1.06-.91-2.24-.91-3.56s.31-2.5.92-3.54c.61-1.05,1.44-1.88,2.49-2.5,1.05-.62,2.21-.93,3.49-.93.75,0,1.47.11,2.16.35.69.23,1.33.57,1.92,1.01v-6.24l2.67-.51v19.16h-2.64v-1.31c-1.16,1.01-2.54,1.52-4.16,1.52Zm.35-2.32c.78,0,1.5-.14,2.14-.43.65-.28,1.19-.69,1.64-1.23v-6.1c-.44-.5-.99-.89-1.64-1.19s-1.36-.44-2.14-.44c-.85,0-1.63.2-2.32.61-.69.41-1.24.96-1.65,1.67-.41.7-.61,1.5-.61,2.39s.2,1.69.61,2.4c.41.71.96,1.28,1.65,1.69.69.42,1.47.63,2.32.63Z"/><path class="cls-2" d="m128.33,218.91v-18.66l2.66-.51v6.88c1.14-1,2.51-1.49,4.13-1.49,1.28,0,2.44.31,3.48.93,1.04.62,1.86,1.46,2.47,2.5.6,1.05.91,2.23.91,3.54s-.31,2.5-.92,3.56c-.61,1.06-1.44,1.9-2.48,2.52-1.04.62-2.21.93-3.5.93-.75,0-1.47-.12-2.17-.36-.7-.24-1.35-.58-1.93-1.03v1.17h-2.64Zm6.45-2.11c.87,0,1.65-.2,2.33-.61.68-.41,1.23-.96,1.64-1.67.41-.7.61-1.5.61-2.39s-.2-1.69-.61-2.4c-.41-.71-.96-1.27-1.64-1.68-.68-.41-1.46-.61-2.33-.61-.76,0-1.48.14-2.13.43-.66.28-1.21.68-1.65,1.2v6.13c.44.5,1,.89,1.67,1.17.67.29,1.37.43,2.12.43Z"/><path class="cls-2" d="m145.55,224.64c-.28,0-.55-.01-.8-.04s-.45-.07-.61-.12v-2.34c.32.07.71.11,1.17.11,1.24,0,2.14-.67,2.69-2l.59-1.31-5.44-13.59h2.96l3.94,10.34,4.37-10.34h2.88l-6.55,15.24c-.43.96-.88,1.74-1.36,2.33-.48.59-1.03,1.03-1.65,1.31-.62.28-1.35.41-2.19.41Z"/><path class="cls-2" d="m20.88,248.7v-5.08h12.05c1.84,0,3.28-.52,4.31-1.57,1.03-1.05,1.55-2.42,1.55-4.13s-.52-3.11-1.55-4.13-2.47-1.53-4.31-1.53h-15.88v25.37h-5.2v-30.62h21.08c1.73,0,3.28.26,4.64.77,1.36.51,2.51,1.23,3.45,2.15.93.92,1.65,2.05,2.15,3.37.5,1.32.74,2.81.74,4.46s-.25,3.11-.74,4.44c-.5,1.34-1.21,2.49-2.15,3.45-.93.97-2.08,1.71-3.45,2.25-1.36.54-2.91.81-4.64.81h-12.05Z"/><path class="cls-2" d="m60.97,257.63v-11.99l-15.92-18.64h7.05l11.68,13.84,11.71-13.84h6.69l-15.97,18.64v11.99h-5.24,0Z"/><path class="cls-2" d="m100.24,257.63v-25.37h-13.8v-5.25h32.86v5.25h-13.82v25.37h-5.24Z"/><path class="cls-2" d="m152.08,227.01h5.22v30.62h-5.22v-30.62Z"/><path class="cls-2" d="m129.56,257.63v-13.58h19.42v-4.65h-19.42v-12.39h-5.22v30.62h5.22Z"/></svg>